<svg width="90" height="130" xmlns="http://www.w3.org/2000/svg" xmlns:svg="http://www.w3.org/2000/svg">
 <g>
  <title>Layer 1</title>
  <g id="svg_1">
   <g id="svg_2">
    <path id="svg_3" d="m67.303,122.207l0,-0.551c0,-0.395 -0.084,-0.725 -0.25,-0.994c-0.162,-0.269 -0.431,-0.465 -0.807,-0.582c0.34,-0.15 0.599,-0.346 0.781,-0.594c0.178,-0.25 0.266,-0.546 0.266,-0.892c0,-0.621 -0.203,-1.099 -0.608,-1.432c-0.405,-0.335 -0.978,-0.502 -1.722,-0.502l-2.453,0l0,6.648l1.107,0l0,-2.756l1.477,0c0.344,0 0.613,0.099 0.807,0.302c0.191,0.199 0.29,0.472 0.29,0.812l0,0.535c0,0.205 0.016,0.414 0.052,0.635c0.037,0.215 0.114,0.373 0.239,0.473l1.139,0l0,-0.105c-0.114,-0.098 -0.198,-0.24 -0.245,-0.424c-0.054,-0.188 -0.073,-0.378 -0.073,-0.573zm-1.425,-2.805c-0.208,0.172 -0.53,0.257 -0.978,0.257l-1.285,0l0,-2.11l1.348,0c0.41,0 0.717,0.097 0.915,0.286c0.202,0.189 0.307,0.45 0.307,0.788c0,0.352 -0.105,0.611 -0.307,0.779z" fill="#61718D"/>
    <path id="svg_4" d="m64.557,111.818c-4.157,-0.014 -7.434,4.512 -7.601,8.03c-0.088,1.904 0.589,3.715 1.907,5.102c1.478,1.551 3.588,2.436 5.787,2.436c0.375,0 0.76,-0.027 1.133,-0.078c3.963,-0.566 6.41,-4.74 6.172,-7.971c-0.172,-4.764 -3.197,-7.519 -7.398,-7.519zm0.675,13.752c-2.109,-0.09 -5.629,-0.287 -6.664,-5.801c-0.198,-1.333 0.357,-2.984 1.186,-3.94c1.033,-1.192 2.639,-2.168 4.792,-2.168c0.827,0 1.628,0.198 2.263,0.488c2.438,1.336 3.988,3.504 4.112,5.685c-0.209,3.598 -3.401,5.736 -5.689,5.736z" fill="#61718D"/>
    <path id="svg_5" d="m81.932,5.055c-2.272,-1.998 -5.668,-2.971 -10.383,-2.971c-3.249,0 -6.633,0.447 -9.648,0.845c-1.715,0.226 -7.756,0.663 -9.473,0.699c-5.843,0.137 -11.729,0.412 -16.788,3.112c-7.122,3.214 -4.024,15.532 -4.225,17.521c-2.762,-0.78 -5.894,-1.513 -8.838,-1.513c-4.537,0 -7.904,1.744 -10.002,5.183c-2.08,3.416 -2.268,7.837 -2.432,11.738c-0.041,1.061 -0.233,4.565 -0.348,5.397c-0.327,2.398 -0.795,5.034 -0.077,7.423c0.503,1.688 2.001,4.285 6.493,4.285c4.971,0 12.149,-3.492 17.177,-6.067c0,0 0.612,8.656 0.88,12.521c-5.078,-0.264 -13.176,-3.741 -17.412,-3.559c-2.21,0.092 -4.114,0.536 -5.816,1.641c-3.083,2.004 -3.33,5.696 -3.517,8.739c-0.033,0.572 -0.066,1.123 -0.119,1.638c-0.464,4.499 -1.673,21.588 -2.856,31.151c-1.628,13.146 -3.647,21.84 2.687,23.986c2.026,0.396 5.753,-0.438 13.454,-0.344c5.387,0.062 12.93,0.988 16.173,-0.266c7.217,-2.771 5.651,-11.295 4.954,-16.286c-1.408,-6.721 -3.711,-40.562 -3.711,-40.562c7.392,2.269 9.195,1.863 12.035,1.466c4.747,-0.668 6.15,-5.643 6.857,-7.946c2.088,-6.81 1.727,-14.989 -0.744,-20.872c-1.259,-3.008 -3.384,-4.388 -6.363,-4.265c-4.316,0.177 -10.549,4.286 -13.723,5.058c-0.271,-4.016 -0.501,-8.105 -0.792,-12.124c0.811,0.281 7.173,2.168 9.585,2.964c8.781,2.893 17.951,6.048 27.357,6.046c11.999,-0.003 13.673,-18.131 13.688,-18.317c0.46,-5.522 0.325,-12.453 -4.073,-16.321zm-54.026,41.133c-1.466,0.691 -7.014,3.528 -10.301,3.83c-1.349,0.125 -1.784,-0.307 -2.062,-0.742c-1.868,-2.913 -2.572,-14.309 -0.454,-18.203c1.273,-2.685 3.281,-3.79 6.553,-3.79c3.272,0 7.17,1.147 10.237,2.152c0.366,4.853 0.767,9.716 1.102,14.569c-1.518,0.591 -3.45,1.42 -5.075,2.184zm15.3,-1.337c2.317,-1.653 4.887,-3.335 6.847,-3.521c0.593,-0.058 1.066,0.088 1.481,0.488c3.629,3.551 3.505,13.99 1.288,18.064c-1.693,3.111 -7.268,3.805 -11.51,3.805c-1.132,0 -2.371,-0.008 -3.613,-0.104c-0.119,-1.666 -0.831,-11.551 -1.059,-14.829c2.292,-1.121 5.282,-2.989 6.566,-3.903zm-5.095,63.401c0.441,3.753 0.838,7.827 -0.92,9.968c-1.49,1.817 -2.209,2.878 -16.671,2.041c-4.312,-0.25 -7.761,0.04 -9.641,0.1c-3.817,0.125 -2.8,-2.714 -2.703,-5.581c0.347,-10.31 2.293,-34.044 2.737,-40.231c0.338,-4.682 2.328,-6.714 7.134,-7.556c5.827,-1.13 13.771,0.05 16.576,1.177c-0.257,2.689 3.488,40.082 3.488,40.082zm42.422,-79.963c-1.294,2.276 -3.867,3.62 -9.26,3.512c-8.037,-0.161 -22.719,-2.351 -36.161,-6.382c-0.014,-1.203 -0.444,-4.629 -0.636,-6.885c-0.208,-2.89 0.783,-10.697 11.375,-9.271c2.886,0.385 5.354,0.876 8.442,0.841c4.575,0.053 8.11,-0.665 11.589,-1.957c2.084,-0.777 4.48,-1.209 6.746,-1.209c2.877,0 7.92,0.731 9.433,5.629c1.488,4.788 0.935,11.375 -1.528,15.722z" fill="#61718D"/>
   </g>
  </g>
 </g>
</svg>