<?xml version="1.0" encoding="utf-8"?>
<!-- Generator: Adobe Illustrator 16.0.0, SVG Export Plug-In . SVG Version: 6.00 Build 0)  -->
<!DOCTYPE svg PUBLIC "-//W3C//DTD SVG 1.1//EN" "http://www.w3.org/Graphics/SVG/1.1/DTD/svg11.dtd">
<svg version="1.1" id="Layer_1" xmlns="http://www.w3.org/2000/svg" xmlns:xlink="http://www.w3.org/1999/xlink" x="0px" y="0px"
	 width="170.08px" height="240.94px" viewBox="0 0 170.08 240.94" enable-background="new 0 0 170.08 240.94" xml:space="preserve">
<g>
	<g>
		<path fill="#61718D" d="M18.237,234.885h-1.785v-14.168h1.785V234.885z"/>
		<path fill="#61718D" d="M22.737,222.541h-1.789v-1.824h1.789V222.541z M22.737,234.885h-1.789v-9.82h1.789V234.885z"/>
		<path fill="#61718D" d="M24.913,230.152c0-1.578,0.346-2.852,1.034-3.82c0.692-0.965,1.646-1.451,2.865-1.451
			c0.621,0,1.169,0.125,1.641,0.373c0.476,0.25,0.865,0.615,1.182,1.09l0.219-1.281h1.424v9.877c0,1.26-0.366,2.227-1.098,2.902
			c-0.733,0.676-1.788,1.012-3.17,1.012c-0.473,0-0.982-0.066-1.531-0.197c-0.55-0.131-1.029-0.305-1.448-0.529l0.455-1.387
			c0.318,0.182,0.707,0.328,1.162,0.436c0.455,0.115,0.901,0.166,1.344,0.166c0.871,0,1.508-0.197,1.902-0.592
			c0.396-0.396,0.596-1,0.596-1.811v-1.105c-0.322,0.41-0.708,0.721-1.154,0.928c-0.446,0.209-0.962,0.312-1.544,0.312
			c-1.204,0-2.151-0.438-2.845-1.305c-0.688-0.875-1.034-2.012-1.034-3.426L24.913,230.152L24.913,230.152z M26.705,230.348
			c0,0.986,0.207,1.777,0.626,2.381c0.415,0.596,1.052,0.9,1.905,0.9c0.54,0,0.99-0.125,1.354-0.371
			c0.364-0.244,0.66-0.594,0.899-1.041v-4.521c-0.229-0.416-0.53-0.75-0.899-0.994c-0.368-0.244-0.813-0.367-1.335-0.367
			c-0.854,0-1.493,0.357-1.917,1.07c-0.423,0.717-0.633,1.633-0.633,2.75V230.348L26.705,230.348z"/>
		<path fill="#61718D" d="M37.476,226.379c0.341-0.473,0.756-0.842,1.25-1.109c0.493-0.258,1.04-0.387,1.641-0.387
			c1.044,0,1.858,0.311,2.445,0.939c0.585,0.635,0.877,1.602,0.877,2.908v6.154h-1.791v-6.17c0-0.811-0.172-1.414-0.521-1.799
			c-0.347-0.385-0.868-0.582-1.56-0.582c-0.494,0-0.945,0.111-1.346,0.346c-0.403,0.234-0.733,0.551-0.996,0.953v7.252h-1.788
			v-14.168h1.788V226.379z"/>
		<path fill="#61718D" d="M48.433,222.693v2.371h1.86v1.32h-1.86v5.967c0,0.465,0.096,0.787,0.281,0.973
			c0.193,0.188,0.445,0.281,0.76,0.281c0.104,0,0.218-0.01,0.344-0.037c0.121-0.02,0.233-0.053,0.33-0.088l0.236,1.227
			c-0.133,0.105-0.329,0.199-0.585,0.266c-0.258,0.066-0.521,0.104-0.777,0.104c-0.726,0-1.305-0.219-1.733-0.654
			c-0.43-0.441-0.647-1.129-0.647-2.07v-5.967H45.08v-1.32h1.561v-2.371H48.433L48.433,222.693z"/>
		<path fill="#61718D" d="M54.247,222.541h-1.789v-1.824h1.789V222.541z M54.247,234.885h-1.789v-9.82h1.789V234.885z"/>
		<path fill="#61718D" d="M58.411,225.064l0.128,1.455c0.328-0.514,0.735-0.922,1.232-1.207c0.491-0.291,1.055-0.43,1.682-0.43
			c1.061,0,1.88,0.305,2.462,0.93c0.58,0.619,0.87,1.576,0.87,2.875v6.197h-1.784v-6.164c0-0.863-0.172-1.479-0.515-1.84
			c-0.343-0.365-0.862-0.547-1.567-0.547c-0.515,0-0.97,0.123-1.365,0.373c-0.397,0.25-0.715,0.59-0.949,1.014v7.164h-1.791v-9.82
			H58.411z"/>
		<path fill="#61718D" d="M66.805,230.152c0-1.578,0.347-2.852,1.039-3.82c0.69-0.965,1.642-1.451,2.858-1.451
			c0.623,0,1.171,0.125,1.644,0.373c0.472,0.25,0.867,0.615,1.183,1.09l0.215-1.281h1.427v9.877c0,1.26-0.366,2.227-1.099,2.902
			c-0.733,0.676-1.788,1.012-3.169,1.012c-0.473,0-0.982-0.066-1.532-0.197c-0.546-0.131-1.029-0.305-1.447-0.529l0.455-1.387
			c0.321,0.182,0.709,0.328,1.161,0.436c0.455,0.115,0.905,0.166,1.344,0.166c0.875,0,1.506-0.197,1.902-0.592
			c0.398-0.396,0.594-1,0.594-1.811v-1.105c-0.32,0.41-0.705,0.721-1.149,0.928c-0.452,0.209-0.966,0.312-1.547,0.312
			c-1.203,0-2.148-0.438-2.84-1.305c-0.692-0.875-1.039-2.012-1.039-3.426L66.805,230.152L66.805,230.152z M68.596,230.348
			c0,0.986,0.208,1.777,0.627,2.381c0.42,0.596,1.054,0.9,1.904,0.9c0.541,0,0.991-0.125,1.354-0.371
			c0.364-0.244,0.66-0.594,0.897-1.041v-4.521c-0.229-0.416-0.528-0.75-0.897-0.994c-0.368-0.244-0.813-0.367-1.332-0.367
			c-0.855,0-1.495,0.357-1.919,1.07c-0.42,0.717-0.635,1.633-0.635,2.75V230.348z"/>
		<path fill="#61718D" d="M84.376,222.693v2.371h1.862v1.32h-1.862v5.967c0,0.465,0.097,0.787,0.287,0.973
			c0.188,0.188,0.441,0.281,0.756,0.281c0.104,0,0.22-0.01,0.345-0.037c0.125-0.02,0.232-0.053,0.33-0.088l0.236,1.227
			c-0.134,0.105-0.332,0.199-0.586,0.266c-0.258,0.066-0.516,0.104-0.778,0.104c-0.724,0-1.305-0.219-1.733-0.654
			c-0.432-0.441-0.647-1.129-0.647-2.07v-5.967h-1.559v-1.32h1.559v-2.371H84.376L84.376,222.693z"/>
		<path fill="#61718D" d="M90.05,226.379c0.339-0.473,0.755-0.842,1.249-1.109c0.494-0.258,1.04-0.387,1.638-0.387
			c1.05,0,1.86,0.311,2.448,0.939c0.582,0.635,0.874,1.602,0.874,2.908v6.154h-1.788v-6.17c0-0.811-0.172-1.414-0.52-1.799
			c-0.35-0.385-0.869-0.582-1.56-0.582c-0.494,0-0.947,0.111-1.347,0.346c-0.405,0.234-0.733,0.551-0.994,0.953v7.252h-1.792
			v-14.168h1.792L90.05,226.379L90.05,226.379z"/>
		<path fill="#61718D" d="M102.72,235.076c-1.368,0-2.454-0.457-3.266-1.365c-0.805-0.912-1.21-2.098-1.21-3.547v-0.4
			c0-1.398,0.416-2.559,1.247-3.488c0.833-0.93,1.821-1.393,2.959-1.393c1.327,0,2.323,0.395,3.005,1.195
			c0.676,0.801,1.02,1.867,1.02,3.197v1.117h-6.379l-0.025,0.043c0.016,0.941,0.26,1.721,0.717,2.322
			c0.458,0.609,1.107,0.912,1.935,0.912c0.608,0,1.139-0.084,1.591-0.262c0.457-0.172,0.853-0.406,1.19-0.713l0.696,1.164
			c-0.348,0.35-0.816,0.641-1.389,0.869C104.232,234.957,103.536,235.076,102.72,235.076z M102.449,226.285
			c-0.597,0-1.113,0.256-1.538,0.76c-0.422,0.5-0.681,1.133-0.78,1.893l0.021,0.047h4.527v-0.234c0-0.701-0.188-1.285-0.561-1.756
			C103.744,226.52,103.188,226.285,102.449,226.285z"/>
		<path fill="#61718D" d="M110.222,222.541h-1.782v-1.824h1.782V222.541z M110.222,234.885h-1.782v-9.82h1.782V234.885z"/>
		<path fill="#61718D" d="M117.438,226.641l-0.916-0.055c-0.472,0-0.868,0.109-1.196,0.34c-0.322,0.223-0.571,0.535-0.749,0.939
			v7.02h-1.787v-9.82h1.601l0.172,1.434c0.275-0.508,0.618-0.908,1.029-1.189c0.411-0.285,0.88-0.426,1.414-0.426
			c0.13,0,0.261,0.01,0.379,0.031c0.12,0.02,0.22,0.041,0.304,0.066L117.438,226.641z"/>
		<path fill="#61718D" d="M125.926,231.309l0.214,1.189h0.053l0.255-1.189l1.959-6.244h1.436l1.971,6.244l0.279,1.326h0.059
			l0.26-1.326l1.544-6.244h1.782l-2.853,9.82h-1.44l-1.898-5.984l-0.41-1.67l-0.058,0.012l-0.39,1.658l-1.871,5.984h-1.44
			l-2.849-9.82h1.778L125.926,231.309z"/>
		<path fill="#61718D" d="M143.344,234.885c-0.062-0.295-0.109-0.555-0.142-0.785c-0.036-0.225-0.052-0.453-0.062-0.686
			c-0.334,0.473-0.764,0.867-1.305,1.186c-0.535,0.316-1.107,0.477-1.727,0.477c-1.025,0-1.805-0.258-2.34-0.785
			c-0.535-0.525-0.805-1.242-0.805-2.168c0-0.936,0.385-1.668,1.143-2.197c0.76-0.531,1.789-0.797,3.089-0.797h1.944v-0.971
			c0-0.578-0.173-1.031-0.524-1.363c-0.354-0.34-0.847-0.51-1.493-0.51c-0.572,0-1.039,0.146-1.398,0.441
			c-0.364,0.297-0.546,0.645-0.546,1.061h-1.705l-0.016-0.057c-0.036-0.719,0.301-1.369,1.013-1.959
			c0.708-0.6,1.627-0.891,2.756-0.891c1.113,0,2.008,0.281,2.682,0.848c0.682,0.566,1.019,1.381,1.019,2.449v4.729
			c0,0.348,0.021,0.688,0.058,1.016c0.037,0.326,0.104,0.648,0.197,0.961h-1.838V234.885z M140.369,233.568
			c0.649,0,1.232-0.164,1.757-0.498c0.519-0.332,0.858-0.713,1.013-1.139v-1.596h-2.006c-0.718,0-1.294,0.182-1.731,0.547
			c-0.432,0.357-0.65,0.785-0.65,1.273c0,0.436,0.142,0.779,0.411,1.035C139.438,233.439,139.839,233.568,140.369,233.568z"/>
		<path fill="#61718D" d="M150.21,231.244l0.317,1.232h0.057l2.412-7.412h1.991l-4.133,11.328c-0.249,0.66-0.603,1.238-1.065,1.725
			c-0.463,0.496-1.092,0.738-1.877,0.738c-0.146,0-0.326-0.018-0.557-0.051c-0.217-0.031-0.394-0.066-0.512-0.094l0.181-1.408
			c-0.036-0.006,0.072,0,0.322,0.021c0.249,0.014,0.411,0.018,0.479,0.018c0.379,0,0.691-0.166,0.936-0.504
			c0.239-0.338,0.442-0.717,0.604-1.129l0.431-1.021l-3.65-9.625h1.997L150.21,231.244z"/>
	</g>
	<g>
		<path fill="#61718D" d="M6.569,205.367v-36.412H0.001v-5.678h6.568v-5.293c0-4.48,1.175-7.949,3.52-10.398
			c2.348-2.447,5.614-3.668,9.812-3.668c0.88,0,1.771,0.07,2.662,0.213c0.896,0.145,1.887,0.344,2.973,0.602l-0.934,5.83
			c-0.465-0.1-1.026-0.195-1.689-0.271c-0.66-0.076-1.352-0.119-2.079-0.119c-2.231,0-3.887,0.672-4.975,2.008
			c-1.087,1.328-1.635,3.27-1.635,5.807v5.293h8.749v5.678h-8.749v36.41H6.569L6.569,205.367z"/>
		<path fill="#61718D" d="M55.511,205.367c-0.262-1.27-0.461-2.395-0.605-3.361c-0.142-0.971-0.227-1.953-0.25-2.936
			c-1.428,2.023-3.286,3.711-5.582,5.074c-2.29,1.355-4.763,2.037-7.4,2.037c-4.38,0-7.715-1.117-10.012-3.357
			c-2.29-2.248-3.439-5.334-3.439-9.275c0-4.014,1.628-7.158,4.88-9.426c3.254-2.266,7.663-3.4,13.232-3.4h8.322v-4.158
			c0-2.465-0.752-4.412-2.254-5.848c-1.505-1.441-3.632-2.158-6.376-2.158c-2.459,0-4.466,0.629-6.005,1.889
			c-1.541,1.258-2.311,2.764-2.311,4.527h-7.31l-0.08-0.234c-0.15-3.062,1.291-5.854,4.338-8.396
			c3.042-2.535,6.975-3.811,11.799-3.811c4.763,0,8.596,1.211,11.499,3.639c2.904,2.424,4.353,5.912,4.353,10.471v20.248
			c0,1.504,0.081,2.953,0.235,4.352c0.156,1.4,0.439,2.777,0.855,4.125H55.511L55.511,205.367z M42.799,199.73
			c2.773,0,5.271-0.713,7.502-2.131c2.231-1.418,3.678-3.047,4.355-4.887v-6.82h-8.592c-3.083,0-5.549,0.777-7.404,2.328
			c-1.852,1.549-2.779,3.367-2.779,5.465c0,1.861,0.585,3.332,1.751,4.418C38.796,199.189,40.517,199.73,42.799,199.73z"/>
		<path fill="#61718D" d="M90.929,170.076l-3.931-0.234c-2.02,0-3.725,0.479-5.109,1.436c-1.383,0.963-2.456,2.311-3.205,4.045
			v30.045h-7.657v-42.055h6.839l0.74,6.141c1.191-2.18,2.662-3.873,4.408-5.096c1.752-1.217,3.765-1.826,6.048-1.826
			c0.566,0,1.112,0.049,1.632,0.137c0.516,0.094,0.945,0.193,1.285,0.293L90.929,170.076z"/>
		<path fill="#61718D" d="M94.547,183.951c0-6.221,1.68-11.342,5.049-15.371s7.943-6.047,13.726-6.047
			c5.827,0,10.433,2.008,13.817,6.025c3.379,4.02,5.068,9.146,5.068,15.395v0.854c0,6.27-1.684,11.4-5.053,15.387
			c-3.371,3.992-7.954,5.99-13.762,5.99c-5.801,0-10.393-2.002-13.777-6.006c-3.377-4.002-5.068-9.129-5.068-15.371V183.951z
			 M102.199,184.785c0,4.449,0.941,8.125,2.818,11.025c1.882,2.896,4.674,4.346,8.375,4.346c3.654,0,6.432-1.449,8.318-4.346
			c1.893-2.9,2.838-6.576,2.838-11.025v-0.854c0-4.398-0.951-8.057-2.853-10.984c-1.904-2.926-4.7-4.389-8.375-4.389
			c-3.655,0-6.421,1.461-8.304,4.389c-1.875,2.926-2.816,6.586-2.816,10.984v0.854H102.199z"/>
		<path fill="#61718D" d="M162.422,194.172c0-1.684-0.645-3.07-1.929-4.158c-1.28-1.086-3.712-2.031-7.284-2.838
			c-5.104-1.113-8.945-2.621-11.524-4.523c-2.579-1.898-3.868-4.492-3.868-7.777c0-3.418,1.451-6.322,4.352-8.73
			c2.906-2.412,6.686-3.613,11.35-3.613c4.896,0,8.791,1.258,11.682,3.775c2.89,2.512,4.273,5.568,4.139,9.17l-0.078,0.234h-7.305
			c0-1.84-0.771-3.496-2.312-4.961c-1.545-1.461-3.582-2.193-6.125-2.193c-2.719,0-4.74,0.598-6.062,1.789
			c-1.32,1.197-1.981,2.631-1.981,4.314c0,1.658,0.582,2.969,1.746,3.926c1.17,0.957,3.541,1.814,7.112,2.562
			c5.313,1.145,9.265,2.688,11.858,4.648c2.59,1.955,3.889,4.578,3.889,7.869c0,3.729-1.512,6.748-4.533,9.059
			c-3.016,2.303-6.961,3.457-11.832,3.457c-5.365,0-9.586-1.361-12.67-4.08c-3.088-2.721-4.549-5.896-4.393-9.525l0.077-0.234h7.305
			c0.13,2.709,1.144,4.689,3.031,5.939c1.893,1.252,4.112,1.875,6.65,1.875c2.719,0,4.851-0.547,6.394-1.652
			C161.646,197.406,162.422,195.955,162.422,194.172z"/>
	</g>
	<g>
		<path fill="#61718D" d="M117.303,122.207v-0.551c0-0.395-0.084-0.725-0.25-0.994c-0.162-0.269-0.431-0.465-0.807-0.582
			c0.34-0.15,0.599-0.346,0.781-0.594c0.178-0.25,0.266-0.546,0.266-0.892c0-0.621-0.203-1.099-0.608-1.432
			c-0.405-0.335-0.978-0.502-1.722-0.502h-2.453v6.648h1.107v-2.756h1.477c0.344,0,0.613,0.099,0.807,0.302
			c0.191,0.199,0.29,0.472,0.29,0.812v0.535c0,0.205,0.016,0.414,0.052,0.635c0.037,0.215,0.114,0.373,0.239,0.473h1.139v-0.105
			c-0.114-0.098-0.198-0.24-0.245-0.424C117.322,122.592,117.303,122.402,117.303,122.207z M115.878,119.402
			c-0.208,0.172-0.53,0.257-0.978,0.257h-1.285v-2.11h1.348c0.41,0,0.717,0.097,0.915,0.286c0.202,0.189,0.307,0.45,0.307,0.788
			C116.185,118.975,116.08,119.234,115.878,119.402z"/>
		<path fill="#61718D" d="M114.557,111.818c-4.157-0.014-7.434,4.512-7.601,8.03c-0.088,1.904,0.589,3.715,1.907,5.102
			c1.478,1.551,3.588,2.436,5.787,2.436c0.375,0,0.76-0.027,1.133-0.078c3.963-0.566,6.41-4.74,6.172-7.971
			C121.783,114.573,118.758,111.818,114.557,111.818z M115.232,125.57c-2.109-0.09-5.629-0.287-6.664-5.801
			c-0.198-1.333,0.357-2.984,1.186-3.94c1.033-1.192,2.639-2.168,4.792-2.168c0.827,0,1.628,0.198,2.263,0.488
			c2.438,1.336,3.988,3.504,4.112,5.685C120.712,123.432,117.52,125.57,115.232,125.57z"/>
		<path fill="#61718D" d="M131.932,5.055c-2.272-1.998-5.668-2.971-10.383-2.971c-3.249,0-6.633,0.447-9.648,0.845
			c-1.715,0.226-7.756,0.663-9.473,0.699C96.585,3.765,90.699,4.04,85.64,6.74c-7.122,3.214-4.024,15.532-4.225,17.521
			c-2.762-0.78-5.894-1.513-8.838-1.513c-4.537,0-7.904,1.744-10.002,5.183c-2.08,3.416-2.268,7.837-2.432,11.738
			c-0.041,1.061-0.233,4.565-0.348,5.397C59.468,47.464,59,50.1,59.718,52.489c0.503,1.688,2.001,4.285,6.493,4.285
			c4.971,0,12.149-3.492,17.177-6.067c0,0,0.612,8.656,0.88,12.521c-5.078-0.264-13.176-3.741-17.412-3.559
			c-2.21,0.092-4.114,0.536-5.816,1.641c-3.083,2.004-3.33,5.696-3.517,8.739c-0.033,0.572-0.066,1.123-0.119,1.638
			c-0.464,4.499-1.673,21.588-2.856,31.151c-1.628,13.146-3.647,21.84,2.687,23.986c2.026,0.396,5.753-0.438,13.454-0.344
			c5.387,0.062,12.93,0.988,16.173-0.266c7.217-2.771,5.651-11.295,4.954-16.286c-1.408-6.721-3.711-40.562-3.711-40.562
			c7.392,2.269,9.195,1.863,12.035,1.466c4.747-0.668,6.15-5.643,6.857-7.946c2.088-6.81,1.727-14.989-0.744-20.872
			c-1.259-3.008-3.384-4.388-6.363-4.265c-4.316,0.177-10.549,4.286-13.723,5.058c-0.271-4.016-0.501-8.105-0.792-12.124
			c0.811,0.281,7.173,2.168,9.585,2.964c8.781,2.893,17.951,6.048,27.357,6.046c11.999-0.003,13.673-18.131,13.688-18.317
			C136.465,15.854,136.33,8.923,131.932,5.055z M77.906,46.188c-1.466,0.691-7.014,3.528-10.301,3.83
			c-1.349,0.125-1.784-0.307-2.062-0.742c-1.868-2.913-2.572-14.309-0.454-18.203c1.273-2.685,3.281-3.79,6.553-3.79
			c3.272,0,7.17,1.147,10.237,2.152c0.366,4.853,0.767,9.716,1.102,14.569C81.463,44.595,79.531,45.424,77.906,46.188z
			 M93.206,44.851c2.317-1.653,4.887-3.335,6.847-3.521c0.593-0.058,1.066,0.088,1.481,0.488c3.629,3.551,3.505,13.99,1.288,18.064
			c-1.693,3.111-7.268,3.805-11.51,3.805c-1.132,0-2.371-0.008-3.613-0.104c-0.119-1.666-0.831-11.551-1.059-14.829
			C88.932,47.633,91.922,45.765,93.206,44.851z M88.111,108.252c0.441,3.753,0.838,7.827-0.92,9.968
			c-1.49,1.817-2.209,2.878-16.671,2.041c-4.312-0.25-7.761,0.04-9.641,0.1c-3.817,0.125-2.8-2.714-2.703-5.581
			c0.347-10.31,2.293-34.044,2.737-40.231c0.338-4.682,2.328-6.714,7.134-7.556c5.827-1.13,13.771,0.05,16.576,1.177
			C84.366,70.859,88.111,108.252,88.111,108.252z M130.533,28.289c-1.294,2.276-3.867,3.62-9.26,3.512
			c-8.037-0.161-22.719-2.351-36.161-6.382c-0.014-1.203-0.444-4.629-0.636-6.885c-0.208-2.89,0.783-10.697,11.375-9.271
			c2.886,0.385,5.354,0.876,8.442,0.841c4.575,0.053,8.11-0.665,11.589-1.957c2.084-0.777,4.48-1.209,6.746-1.209
			c2.877,0,7.92,0.731,9.433,5.629C133.549,17.355,132.996,23.942,130.533,28.289z"/>
	</g>
</g>
</svg>
