<?xml version="1.0" encoding="utf-8"?>
<!-- Generator: Adobe Illustrator 16.0.0, SVG Export Plug-In . SVG Version: 6.00 Build 0)  -->
<!DOCTYPE svg PUBLIC "-//W3C//DTD SVG 1.1//EN" "http://www.w3.org/Graphics/SVG/1.1/DTD/svg11.dtd">
<svg version="1.1" id="Layer_1" xmlns="http://www.w3.org/2000/svg" xmlns:xlink="http://www.w3.org/1999/xlink" x="0px" y="0px"
	 width="283.46px" height="133.23px" viewBox="0 0 283.46 133.23" enable-background="new 0 0 283.46 133.23" xml:space="preserve">
<g>
	<rect x="127.612" y="113.447" fill="#61718D" width="1.811" height="14.373"/>
	<rect x="132.173" y="113.447" fill="#61718D" width="1.815" height="1.852"/>
	<rect x="132.173" y="117.859" fill="#61718D" width="1.815" height="9.961"/>
	<path fill="#61718D" d="M143.016,119.154c-0.323-0.48-0.717-0.85-1.2-1.104c-0.479-0.252-1.035-0.379-1.666-0.379
		c-1.236,0-2.204,0.492-2.906,1.471c-0.699,0.984-1.049,2.275-1.049,3.877h-0.001v0.193c0,1.436,0.352,2.59,1.049,3.477
		c0.703,0.879,1.664,1.324,2.885,1.324c0.591,0,1.114-0.105,1.567-0.318c0.452-0.209,0.844-0.525,1.172-0.941v1.123
		c0,0.82-0.204,1.434-0.604,1.836c-0.4,0.4-1.047,0.602-1.931,0.602c-0.449,0-0.902-0.053-1.363-0.17
		c-0.461-0.109-0.855-0.258-1.18-0.441l-0.461,1.406c0.425,0.229,0.912,0.404,1.47,0.537c0.557,0.133,1.074,0.201,1.553,0.201
		c1.401,0,2.473-0.344,3.217-1.027c0.742-0.686,1.114-1.666,1.114-2.943v-10.02h-1.444L143.016,119.154z M142.868,125.115
		c-0.242,0.453-0.544,0.807-0.914,1.055c-0.369,0.248-0.825,0.375-1.373,0.375c-0.865,0-1.511-0.307-1.933-0.912
		c-0.425-0.611-0.636-1.414-0.636-2.416v-0.195c0-1.135,0.213-2.062,0.644-2.791c0.429-0.721,1.078-1.086,1.943-1.086
		c0.529,0,0.981,0.127,1.354,0.375c0.376,0.246,0.682,0.586,0.914,1.008V125.115z"/>
	<path fill="#61718D" d="M151.873,117.674c-0.609,0-1.164,0.131-1.664,0.393c-0.501,0.271-0.923,0.646-1.268,1.125v-5.744h-1.814
		v14.373h1.814v-7.357c0.267-0.406,0.601-0.729,1.01-0.965c0.406-0.238,0.864-0.354,1.365-0.354c0.702,0,1.23,0.201,1.582,0.592
		c0.354,0.391,0.528,1.002,0.528,1.824v6.26h1.816v-6.244c0-1.324-0.296-2.305-0.89-2.949
		C153.758,117.988,152.932,117.674,151.873,117.674z"/>
	<path fill="#61718D" d="M161.461,126.484c-0.127,0.027-0.243,0.037-0.349,0.037c-0.318,0-0.575-0.094-0.771-0.283
		c-0.188-0.189-0.286-0.516-0.286-0.986v-6.055h1.888v-1.338h-1.888v-2.406h-1.817v2.406h-1.583v1.338h1.583v6.055
		c0,0.955,0.221,1.652,0.656,2.1c0.436,0.441,1.023,0.664,1.759,0.664c0.261,0,0.527-0.037,0.788-0.105s0.46-0.164,0.594-0.27
		l-0.239-1.246C161.697,126.432,161.584,126.465,161.461,126.484z"/>
	<rect x="164.141" y="117.859" fill="#61718D" width="1.813" height="9.961"/>
	<rect x="164.141" y="113.447" fill="#61718D" width="1.813" height="1.852"/>
	<path fill="#61718D" d="M173.265,117.674c-0.636,0-1.207,0.141-1.706,0.436c-0.504,0.291-0.917,0.703-1.249,1.225l-0.131-1.475
		h-1.62v9.961h1.817v-7.268c0.237-0.43,0.56-0.775,0.962-1.027c0.401-0.254,0.863-0.381,1.385-0.381
		c0.716,0,1.243,0.186,1.591,0.555s0.522,0.992,0.522,1.867v6.254h1.811v-6.287c0-1.318-0.295-2.289-0.884-2.916
		C175.172,117.982,174.342,117.674,173.265,117.674z"/>
	<path fill="#61718D" d="M185.515,119.154c-0.319-0.48-0.721-0.85-1.2-1.104c-0.479-0.252-1.034-0.379-1.667-0.379
		c-1.233,0-2.199,0.492-2.899,1.471c-0.702,0.984-1.054,2.275-1.054,3.877h-0.002v0.193c0,1.436,0.353,2.59,1.055,3.477
		c0.701,0.879,1.661,1.324,2.881,1.324c0.59,0,1.11-0.105,1.569-0.318c0.451-0.209,0.842-0.525,1.166-0.941v1.123
		c0,0.82-0.198,1.434-0.603,1.836c-0.402,0.4-1.043,0.602-1.929,0.602c-0.445,0-0.902-0.053-1.364-0.17
		c-0.458-0.109-0.852-0.258-1.178-0.441l-0.462,1.406c0.425,0.229,0.915,0.404,1.469,0.537c0.558,0.133,1.074,0.201,1.555,0.201
		c1.4,0,2.471-0.344,3.214-1.027c0.744-0.686,1.115-1.666,1.115-2.943v-10.02h-1.448L185.515,119.154z M185.363,125.115
		c-0.24,0.453-0.54,0.807-0.91,1.055c-0.369,0.248-0.825,0.375-1.374,0.375c-0.862,0-1.507-0.307-1.932-0.912
		c-0.426-0.611-0.637-1.414-0.637-2.416v-0.195c0-1.135,0.218-2.062,0.645-2.791c0.43-0.721,1.079-1.086,1.946-1.086
		c0.526,0,0.978,0.127,1.352,0.375c0.375,0.246,0.678,0.586,0.91,1.008V125.115z"/>
	<path fill="#61718D" d="M197.928,126.484c-0.126,0.027-0.245,0.037-0.351,0.037c-0.318,0-0.576-0.094-0.767-0.283
		c-0.192-0.189-0.291-0.516-0.291-0.986v-6.055h1.889v-1.338h-1.889v-2.406h-1.816v2.406h-1.582v1.338h1.582v6.055
		c0,0.955,0.219,1.652,0.656,2.1c0.436,0.441,1.024,0.664,1.759,0.664c0.267,0,0.527-0.037,0.79-0.105
		c0.257-0.068,0.458-0.164,0.594-0.27l-0.239-1.246C198.163,126.432,198.055,126.465,197.928,126.484z"/>
	<path fill="#61718D" d="M205.203,117.674c-0.604,0-1.159,0.131-1.66,0.393c-0.502,0.271-0.924,0.646-1.267,1.125v-5.744h-1.818
		v14.373h1.818v-7.357c0.265-0.406,0.598-0.729,1.008-0.965c0.407-0.238,0.866-0.354,1.366-0.354c0.701,0,1.229,0.201,1.583,0.592
		c0.353,0.391,0.527,1.002,0.527,1.824v6.26h1.814v-6.244c0-1.324-0.296-2.305-0.888-2.949
		C207.092,117.988,206.271,117.674,205.203,117.674z"/>
	<path fill="#61718D" d="M214.855,117.674c-1.154,0-2.156,0.469-3.001,1.412c-0.845,0.945-1.266,2.121-1.266,3.539v0.406
		c0,1.471,0.411,2.674,1.227,3.598c0.823,0.922,1.925,1.387,3.312,1.387c0.829,0,1.536-0.121,2.122-0.354
		c0.58-0.23,1.055-0.527,1.409-0.881l-0.707-1.182c-0.342,0.311-0.743,0.549-1.208,0.723c-0.458,0.18-0.997,0.266-1.614,0.266
		c-0.839,0-1.496-0.307-1.962-0.924c-0.463-0.611-0.71-1.402-0.728-2.357l0.027-0.043h6.47v-1.135c0-1.35-0.349-2.432-1.033-3.242
		C217.213,118.074,216.201,117.674,214.855,117.674z M217.117,121.836h-4.593l-0.021-0.049c0.101-0.771,0.363-1.414,0.792-1.92
		c0.43-0.512,0.953-0.771,1.559-0.771c0.75,0,1.314,0.238,1.693,0.719c0.38,0.479,0.57,1.07,0.57,1.783V121.836z"/>
	<rect x="220.931" y="113.447" fill="#61718D" width="1.808" height="1.852"/>
	<rect x="220.931" y="117.859" fill="#61718D" width="1.808" height="9.961"/>
	<path fill="#61718D" d="M229.621,117.674c-0.543,0-1.018,0.143-1.435,0.432c-0.416,0.285-0.765,0.691-1.045,1.207l-0.174-1.453
		h-1.625v9.961h1.814v-7.119c0.179-0.412,0.432-0.729,0.759-0.955c0.333-0.232,0.736-0.344,1.215-0.344l0.929,0.055l0.253-1.684
		c-0.084-0.025-0.186-0.047-0.308-0.068C229.884,117.684,229.752,117.674,229.621,117.674z"/>
	<polygon fill="#61718D" points="245.249,124.191 244.986,125.537 244.926,125.537 244.644,124.191 242.645,117.859 
		241.187,117.859 239.199,124.191 238.94,125.398 238.888,125.398 238.672,124.191 237.027,117.859 235.223,117.859 238.113,127.82 
		239.573,127.82 241.473,121.75 241.868,120.068 241.927,120.057 242.343,121.75 244.268,127.82 245.729,127.82 248.624,117.859 
		246.815,117.859 	"/>
	<path fill="#61718D" d="M257.947,125.814v-4.799c0-1.082-0.343-1.91-1.033-2.484c-0.686-0.574-1.593-0.859-2.722-0.859
		c-1.145,0-2.077,0.295-2.795,0.902c-0.722,0.6-1.064,1.26-1.027,1.988l0.016,0.059h1.729c0-0.424,0.184-0.775,0.554-1.076
		c0.363-0.301,0.839-0.449,1.419-0.449c0.655,0,1.155,0.174,1.514,0.518c0.358,0.338,0.531,0.797,0.531,1.383v0.984h-1.972
		c-1.317,0-2.362,0.271-3.132,0.809c-0.771,0.537-1.16,1.281-1.16,2.23c0,0.938,0.273,1.666,0.816,2.199s1.335,0.797,2.374,0.797
		c0.629,0,1.209-0.164,1.752-0.486c0.549-0.32,0.985-0.721,1.323-1.201c0.01,0.236,0.025,0.469,0.062,0.695
		c0.033,0.234,0.08,0.498,0.143,0.797v-0.002h1.866c-0.096-0.316-0.163-0.645-0.2-0.975
		C257.969,126.51,257.947,126.166,257.947,125.814z M256.133,124.824c-0.157,0.434-0.502,0.818-1.027,1.154
		c-0.533,0.34-1.123,0.506-1.783,0.506c-0.537,0-0.943-0.129-1.224-0.383c-0.272-0.26-0.417-0.607-0.417-1.049
		c0-0.496,0.222-0.928,0.66-1.293c0.443-0.369,1.027-0.555,1.756-0.555h2.035V124.824z"/>
	<path fill="#61718D" d="M263.686,125.377h-0.057l-0.323-1.248l-2.099-6.271h-2.025l3.703,9.762l-0.438,1.037
		c-0.163,0.418-0.368,0.803-0.611,1.145c-0.247,0.344-0.564,0.514-0.949,0.514c-0.068,0-0.232-0.004-0.485-0.02
		c-0.253-0.021-0.364-0.027-0.327-0.021l-0.185,1.428c0.121,0.027,0.3,0.064,0.521,0.096c0.231,0.033,0.417,0.053,0.564,0.053
		c0.796,0,1.435-0.248,1.903-0.75c0.47-0.494,0.828-1.08,1.081-1.75l4.192-11.49h-2.019L263.686,125.377z"/>
	<path fill="#61718D" d="M127.01,43.918c1.104-1.355,2.783-2.036,5.046-2.036c0.739,0,1.44,0.043,2.11,0.121
		c0.672,0.078,1.242,0.173,1.713,0.274l0.947-5.913c-1.102-0.263-2.106-0.465-3.016-0.611c-0.904-0.144-1.807-0.216-2.7-0.216
		c-4.26,0-7.573,1.238-9.955,3.722c-2.379,2.485-3.571,6.002-3.571,10.549v5.368h-6.664v5.759h6.664v36.94h7.766V60.937h8.875
		v-5.759h-8.875V49.81C125.352,47.234,125.908,45.267,127.01,43.918z"/>
	<path fill="#61718D" d="M174.373,93.691c-0.157-1.418-0.239-2.891-0.239-4.414V68.734c0-4.625-1.469-8.163-4.415-10.622
		c-2.946-2.462-6.834-3.69-11.666-3.69c-4.893,0-8.883,1.292-11.969,3.866c-3.091,2.579-4.556,5.411-4.403,8.518l0.082,0.237h7.417
		c0-1.789,0.78-3.317,2.344-4.594c1.562-1.277,3.598-1.915,6.092-1.915c2.784,0,4.941,0.728,6.468,2.19
		c1.524,1.456,2.287,3.431,2.287,5.934v4.217h-8.442c-5.65,0-10.123,1.15-13.425,3.449c-3.3,2.301-4.951,5.49-4.951,9.562
		c0,3.998,1.166,7.131,3.49,9.41c2.33,2.271,5.713,3.404,10.156,3.404c2.677,0,5.185-0.689,7.508-2.066
		c2.329-1.381,4.215-3.094,5.663-5.146c0.023,0.996,0.109,1.994,0.253,2.979c0.146,0.98,0.35,2.121,0.614,3.408h8.004
		C174.818,96.508,174.531,95.111,174.373,93.691z M166.37,85.039c-0.688,1.865-2.155,3.518-4.419,4.957
		c-2.263,1.438-4.797,2.162-7.61,2.162c-2.314,0-4.061-0.549-5.241-1.65c-1.184-1.102-1.777-2.594-1.777-4.482
		c0-2.127,0.942-3.973,2.819-5.543c1.884-1.574,4.385-2.363,7.513-2.363h8.716V85.039z"/>
	<path fill="#61718D" d="M204.232,54.854c-0.345-0.101-0.78-0.2-1.305-0.296c-0.527-0.089-1.08-0.138-1.654-0.138
		c-2.315,0-4.358,0.617-6.136,1.851c-1.771,1.24-3.264,2.958-4.472,5.17l-0.751-6.229h-6.938v42.662h7.769v-30.48
		c0.76-1.759,1.849-3.125,3.251-4.103c1.405-0.972,3.136-1.456,5.184-1.456l3.988,0.237L204.232,54.854z"/>
	<path fill="#61718D" d="M225.956,98.703c5.892,0,10.542-2.025,13.96-6.076c3.418-4.045,5.127-9.248,5.127-15.609v-0.865
		c0-6.338-1.715-11.541-5.141-15.618c-3.434-4.076-8.107-6.112-14.019-6.112c-5.866,0-10.507,2.046-13.924,6.133
		c-3.418,4.087-5.121,9.284-5.121,15.595v0.867c0,6.334,1.715,11.533,5.14,15.594C215.412,96.674,220.07,98.703,225.956,98.703z
		 M214.603,76.996v-0.867c0-4.461,0.954-8.175,2.857-11.143c1.909-2.971,4.716-4.452,8.424-4.452c3.728,0,6.563,1.483,8.496,4.452
		c1.929,2.97,2.895,6.682,2.895,11.143v0.867c0,4.514-0.96,8.242-2.881,11.186c-1.913,2.938-4.729,4.408-8.438,4.408
		c-3.755,0-6.587-1.471-8.496-4.408c-1.903-2.943-2.859-6.672-2.859-11.186H214.603z"/>
	<path fill="#61718D" d="M279.52,78.021c-2.632-1.988-6.642-3.555-12.031-4.715c-3.622-0.758-6.028-1.629-7.215-2.6
		c-1.18-0.971-1.771-2.301-1.771-3.983c0-1.707,0.672-3.163,2.011-4.377c1.339-1.208,3.391-1.814,6.148-1.814
		c2.579,0,4.646,0.744,6.213,2.225c1.565,1.487,2.346,3.167,2.346,5.034h7.412l0.079-0.238c0.137-3.655-1.267-6.756-4.2-9.304
		c-2.931-2.554-6.882-3.829-11.85-3.829c-4.731,0-8.566,1.219-11.513,3.665c-2.943,2.443-4.417,5.39-4.417,8.856
		c0,3.333,1.311,5.964,3.927,7.89c2.615,1.93,6.512,3.461,11.689,4.59c3.624,0.816,6.093,1.775,7.391,2.877
		c1.302,1.105,1.956,2.512,1.956,4.221c0,1.809-0.786,3.279-2.346,4.393c-1.566,1.123-3.729,1.678-6.487,1.678
		c-2.573,0-4.825-0.633-6.746-1.902c-1.915-1.268-2.942-3.277-3.075-6.025h-7.41l-0.077,0.238c-0.16,3.68,1.323,6.904,4.455,9.662
		c3.128,2.758,7.41,4.139,12.854,4.139c4.942,0,8.944-1.17,12.004-3.506c3.063-2.344,4.598-5.408,4.598-9.189
		C283.463,82.668,282.145,80.006,279.52,78.021z"/>
	<path fill="#61718D" d="M65.332,123.242v-0.561c0-0.398-0.085-0.736-0.254-1.006c-0.163-0.275-0.436-0.473-0.817-0.592
		c0.345-0.152,0.607-0.35,0.792-0.604c0.18-0.254,0.27-0.553,0.27-0.904c0-0.629-0.207-1.113-0.617-1.453
		c-0.412-0.34-0.992-0.508-1.746-0.508H60.47v6.742h1.123v-2.795h1.499c0.349,0,0.622,0.102,0.818,0.307
		c0.194,0.201,0.295,0.479,0.295,0.822v0.543c0,0.209,0.015,0.42,0.052,0.645c0.037,0.219,0.116,0.379,0.242,0.479h1.155v-0.105
		c-0.116-0.1-0.2-0.242-0.248-0.43C65.352,123.631,65.332,123.439,65.332,123.242z M63.887,120.396
		c-0.211,0.174-0.538,0.262-0.992,0.262h-1.303v-2.143h1.366c0.417,0,0.728,0.1,0.929,0.291c0.205,0.193,0.312,0.457,0.312,0.801
		C64.198,119.963,64.092,120.225,63.887,120.396z"/>
	<path fill="#61718D" d="M62.546,112.703c-4.218-0.016-7.54,4.576-7.71,8.145c-0.089,1.932,0.598,3.77,1.936,5.176
		c1.498,1.572,3.639,2.471,5.871,2.471c0.38,0,0.77-0.027,1.149-0.08c4.019-0.574,6.502-4.809,6.26-8.086
		C69.877,115.498,66.808,112.703,62.546,112.703z M63.232,126.652c-2.141-0.09-5.711-0.289-6.762-5.885
		c-0.2-1.352,0.363-3.025,1.203-3.996c1.049-1.209,2.678-2.201,4.862-2.201c0.839,0,1.652,0.201,2.295,0.498
		c2.474,1.354,4.046,3.553,4.172,5.766C68.791,124.484,65.552,126.652,63.232,126.652z"/>
	<path fill="#61718D" d="M80.172,4.394c-2.305-2.026-5.75-3.013-10.532-3.013c-3.296,0-6.729,0.453-9.789,0.856
		c-1.74,0.229-7.868,0.673-9.609,0.71c-5.928,0.138-11.898,0.417-17.031,3.155c-7.225,3.26-4.083,15.757-4.286,17.774
		c-2.802-0.792-5.979-1.536-8.966-1.536c-4.603,0-8.019,1.77-10.147,5.258c-2.11,3.466-2.299,7.95-2.466,11.908
		c-0.042,1.076-0.237,4.631-0.354,5.475c-0.332,2.434-0.807,5.107-0.079,7.531c0.51,1.712,2.03,4.346,6.587,4.346
		c5.042,0,12.325-3.542,17.425-6.155c0,0,0.621,8.782,0.893,12.702c-5.152-0.267-13.367-3.794-17.665-3.611
		c-2.242,0.094-4.173,0.545-5.9,1.664c-3.127,2.034-3.379,5.779-3.567,8.868c-0.034,0.58-0.068,1.139-0.122,1.66
		c-0.47,4.564-1.697,21.9-2.897,31.602c-1.651,13.336-3.7,22.156,2.725,24.334c2.055,0.4,5.836-0.443,13.649-0.35
		c5.464,0.062,13.117,1.004,16.406-0.27c7.321-2.811,5.733-11.459,5.027-16.521c-1.43-6.818-3.766-41.146-3.766-41.146
		c7.499,2.301,9.329,1.891,12.21,1.486c4.815-0.68,6.239-5.725,6.956-8.062c2.12-6.909,1.751-15.205-0.754-21.173
		c-1.277-3.052-3.433-4.452-6.455-4.327c-4.378,0.179-10.702,4.348-13.921,5.13c-0.276-4.074-0.509-8.222-0.804-12.299
		c0.822,0.285,7.276,2.2,9.723,3.007c8.908,2.935,18.211,6.135,27.753,6.133C82.59,39.531,84.289,21.139,84.304,20.95
		C84.771,15.349,84.634,8.318,80.172,4.394z M25.366,46.122c-1.487,0.702-7.115,3.579-10.45,3.885
		c-1.368,0.126-1.81-0.312-2.091-0.752c-1.896-2.957-2.61-14.516-0.461-18.466c1.292-2.724,3.329-3.845,6.648-3.845
		c3.32,0,7.273,1.164,10.385,2.184c0.372,4.922,0.777,9.857,1.117,14.78C28.974,44.505,27.015,45.346,25.366,46.122z M40.887,44.767
		c2.351-1.678,4.957-3.384,6.945-3.574c0.602-0.059,1.082,0.089,1.503,0.496c3.682,3.602,3.555,14.192,1.307,18.326
		c-1.718,3.156-7.372,3.859-11.676,3.859c-1.148,0-2.405-0.008-3.665-0.105c-0.122-1.689-0.844-11.718-1.074-15.043
		C36.551,47.589,39.584,45.693,40.887,44.767z M35.718,109.084c0.448,3.807,0.85,7.941-0.933,10.111
		c-1.512,1.846-2.24,2.92-16.912,2.072c-4.375-0.254-7.873,0.037-9.779,0.1c-3.874,0.127-2.841-2.754-2.743-5.662
		c0.351-10.459,2.326-34.537,2.776-40.812c0.344-4.75,2.362-6.811,7.237-7.667c5.912-1.146,13.97,0.05,16.816,1.196
		C31.92,71.15,35.718,109.084,35.718,109.084z M78.753,27.964c-1.312,2.31-3.923,3.672-9.393,3.563
		c-8.153-0.164-23.047-2.385-36.685-6.475c-0.014-1.221-0.451-4.696-0.645-6.985c-0.211-2.932,0.794-10.852,11.539-9.406
		c2.928,0.39,5.432,0.889,8.565,0.854c4.641,0.054,8.229-0.675,11.756-1.985c2.114-0.788,4.546-1.226,6.844-1.226
		c2.918,0,8.034,0.741,9.569,5.709C81.813,16.873,81.253,23.555,78.753,27.964z"/>
</g>
</svg>
