<?xml version="1.0" standalone="no"?>
<!DOCTYPE svg PUBLIC "-//W3C//DTD SVG 20010904//EN"
 "http://www.w3.org/TR/2001/REC-SVG-20010904/DTD/svg10.dtd">
<svg version="1.0" xmlns="http://www.w3.org/2000/svg"
 width="98.000000pt" height="3917.000000pt" viewBox="0 0 98.000000 3917.000000"
 preserveAspectRatio="xMidYMid meet">
<g transform="translate(0.000000,3917.000000) scale(0.100000,-0.100000)"
fill="rgba(96,113,141,1)" stroke="none">
<path d="M546 39148 c-3 -13 -6 -140 -6 -283 0 -528 -44 -2175 -80 -2990 -45
-1023 -83 -1587 -150 -2230 -50 -483 -66 -655 -80 -885 -6 -102 -15 -227 -19
-278 -12 -158 -13 -1120 -1 -1437 38 -1059 100 -1695 330 -3425 209 -1573 261
-2095 261 -2635 0 -386 -27 -642 -121 -1120 -107 -545 -189 -1091 -265 -1760
-139 -1231 -194 -2252 -182 -3390 9 -819 33 -1175 123 -1790 119 -819 147
-1135 147 -1665 0 -422 -18 -772 -93 -1840 -102 -1442 -141 -2780 -120 -4110
19 -1177 56 -1640 200 -2480 126 -736 134 -818 120 -1220 -40 -1204 -98 -3080
-115 -3755 -18 -695 -24 -1686 -11 -1790 19 -147 27 -9 26 455 0 621 29 1696
107 4000 33 972 37 1767 10 2066 -28 317 -48 450 -161 1084 -74 414 -97 620
-116 1040 -40 878 -40 1860 0 2795 15 349 35 684 85 1455 75 1150 92 1512 101
2150 13 885 -32 1568 -156 2380 -166 1084 -160 2043 26 3770 81 756 157 1283
279 1930 133 709 162 1071 152 1920 -8 608 -25 938 -83 1530 -44 460 -86 805
-219 1790 -229 1702 -296 2431 -296 3245 0 441 12 681 55 1061 81 712 114
1122 156 1924 52 1002 104 2591 115 3555 3 242 7 556 10 698 4 213 2 257 -9
257 -7 0 -16 -10 -20 -22z"/>
</g>
</svg>
