<svg xmlns="http://www.w3.org/2000/svg" viewBox="0 0 64 64" aria-labelledby="title"
aria-describedby="desc" role="img" xmlns:xlink="http://www.w3.org/1999/xlink">
  <title>Youtube</title>
  <desc>A solid styled icon from Orion Icon Library.</desc>
  <path data-name="layer2"
  d="M39.933 6.027v14.051a7.659 7.659 0 0 0 .329 2.635 1.972 1.972 0 0 0 2.086 1.317c1.208 0 2.415-.768 3.623-2.2v1.976h3.293V6.027h-3.293v13.612c-.768.988-1.427 1.537-2.086 1.537-.439 0-.659-.22-.768-.768V6.027zM32.468 24.14a4.341 4.341 0 0 0 3.732-1.866 7.08 7.08 0 0 0 .988-4.172v-6.257a7.08 7.08 0 0 0-.988-4.172 4.48 4.48 0 0 0-3.732-1.866 4.341 4.341 0 0 0-3.732 1.866 7.08 7.08 0 0 0-.988 4.172V18.1a7.08 7.08 0 0 0 .988 4.172 4.48 4.48 0 0 0 3.732 1.868zm-1.537-12.954c0-1.647.549-2.415 1.537-2.415s1.537.768 1.537 2.415v7.465c0 1.647-.549 2.525-1.537 2.525s-1.537-.878-1.537-2.525zM23.357 23.92v-9.66L27.638-.011h-3.623L21.6 9.32 19.075-.011h-3.732C16 1.965 16.77 4.16 17.648 6.685a65.168 65.168 0 0 1 2.2 7.575v9.66z"
  fill="#ffffff"></path>
  <path data-name="layer1" d="M56.729 29.519a6.09 6.09 0 0 0-3.623-1.647c-4.391-.439-10.978-.768-19.76-.768a176.435 176.435 0 0 0-19.76.768 6.9 6.9 0 0 0-3.623 1.647 6.453 6.453 0 0 0-2.086 3.513C7.22 35.776 7 39.948 7 45.546a67.519 67.519 0 0 0 .878 12.515 6.453 6.453 0 0 0 2.086 3.513 6.09 6.09 0 0 0 3.623 1.647 176.435 176.435 0 0 0 19.76.768 175.145 175.145 0 0 0 19.76-.768 5.563 5.563 0 0 0 3.623-1.647 6.453 6.453 0 0 0 2.086-3.513c.659-2.744.878-6.916.878-12.515a67.519 67.519 0 0 0-.878-12.515 6.727 6.727 0 0 0-2.087-3.512zm-34.8 7.136h-3.842v20.308h-3.622V36.654h-3.733v-3.4H21.82v3.4zm9.551 20.308H28.3v-1.976c-1.317 1.427-2.525 2.2-3.623 2.2a1.972 1.972 0 0 1-2.086-1.317 7.659 7.659 0 0 1-.329-2.635V39.289h3.293V53.45c.11.549.329.768.768.768.659 0 1.317-.549 2.086-1.537V39.289h3.181l-.11 17.674zm12.185-5.379a11.8 11.8 0 0 1-.329 3.513 2.465 2.465 0 0 1-2.525 1.976 4.5 4.5 0 0 1-3.293-1.973v1.756h-3.184v-23.6h3.184v7.794a4.158 4.158 0 0 1 3.293-1.976 2.465 2.465 0 0 1 2.525 1.976 12.319 12.319 0 0 1 .329 3.513zm12.076-2.854h-6.367v3.07c0 1.647.549 2.415 1.647 2.415.768 0 1.208-.439 1.427-1.317 0-.22.11-.988.11-2.2h3.293v.439a7.923 7.923 0 0 1-.11 2.086 4.931 4.931 0 0 1-.768 1.976 4.888 4.888 0 0 1-7.684 0 7.08 7.08 0 0 1-.988-4.172v-6.139a7.08 7.08 0 0 1 .988-4.172 4.541 4.541 0 0 1 3.841-1.866 4.341 4.341 0 0 1 3.732 1.866 7.08 7.08 0 0 1 .988 4.172l-.11 3.842z"
  fill="#ffffff"></path>
  <path data-name="layer1" d="M50.911 41.924c-1.1 0-1.647.768-1.647 2.415v1.647h3.184v-1.647c.109-1.539-.439-2.415-1.537-2.415zm-11.856 0a2.287 2.287 0 0 0-1.647.768V53.45a2.287 2.287 0 0 0 1.647.768c.878 0 1.427-.768 1.427-2.415v-7.574c0-1.429-.439-2.305-1.427-2.305z"
  fill="#ffffff"></path>
</svg>